<svg xmlns="http://www.w3.org/2000/svg" width="863" height="826.714" viewBox="0 0 863 826.714">
  <g id="Group_3" data-name="Group 3" transform="translate(-529 -127)">
    <g id="Group_2" data-name="Group 2">
      <g id="Group_1" data-name="Group 1" transform="translate(529 127)">
        <path id="Path_1" data-name="Path 1" d="M908.585,346.03C863.668,169.408,708.468,41.912,526.3,36.8,429.988,34.1,328.644,66.036,254.859,177.81c-131.9,199.808,8.106,337.882,105.714,403.492A610.758,610.758,0,0,1,486.814,694.767C552.745,773,679.581,870.226,830.637,717.9,940.122,607.486,938.5,463.677,908.585,346.03Z" transform="translate(-168.5 -36.643)" fill="#f2f2f2"/>
        <path id="Path_2" data-name="Path 2" d="M1030.5,739.357c0,43.354-189.189,124-427.5,124s-434.5-75.646-434.5-119,196.189-38,434.5-38S1030.5,696,1030.5,739.357Z" transform="translate(-168.5 -36.643)" fill="#3f3d56"/>
        <path id="Path_3" data-name="Path 3" d="M1030.5,739.357c0,43.354-189.189,124-427.5,124s-434.5-75.646-434.5-119,196.189-38,434.5-38S1030.5,696,1030.5,739.357Z" transform="translate(-168.5 -36.643)" opacity="0.1"/>
        <ellipse id="Ellipse_1" data-name="Ellipse 1" cx="431.5" cy="78.5" rx="431.5" ry="78.5" transform="translate(0 628.714)" fill="#3f3d56"/>
        <path id="Path_4" data-name="Path 4" d="M594.859,440.238V650.182l35.117,57.231,2.673,4.353H771.212l2.8-271.528Z" fill="#2f2e41"/>
        <path id="Path_5" data-name="Path 5" d="M594.859,440.238V650.182l35.117,57.231,2.155-267.175Z" opacity="0.1"/>
        <path id="Path_6" data-name="Path 6" d="M260.348,434.639V644.583l-35.117,57.231-2.673,4.353H83.994l-2.8-271.528Z" fill="#2f2e41"/>
        <path id="Path_7" data-name="Path 7" d="M260.348,434.639V644.583l-35.117,57.231-2.156-267.175Z" opacity="0.1"/>
        <path id="Path_8" data-name="Path 8" d="M816,430.44v12.6H63V424.842l69.981-36.39H754.416Z" fill="#2f2e41"/>
        <path id="Path_9" data-name="Path 9" d="M816,430.44v12.6H63V424.842Z" opacity="0.1"/>
        <path id="Path_10" data-name="Path 10" d="M170.771,493.424H137.18l-14-9.8h62.983Z" opacity="0.1"/>
        <path id="Path_11" data-name="Path 11" d="M170.771,534.013H137.18l-14-9.8h62.983Z" opacity="0.1"/>
        <path id="Path_12" data-name="Path 12" d="M170.771,591.4H137.18l-14-9.8h62.983Z" opacity="0.1"/>
        <path id="Path_13" data-name="Path 13" d="M170.771,648.782H137.18l-14-9.8h62.983Z" opacity="0.1"/>
        <path id="Path_14" data-name="Path 14" d="M684.435,499.022h33.591l14-9.8H669.039Z" opacity="0.1"/>
        <path id="Path_15" data-name="Path 15" d="M684.435,539.611h33.591l14-9.8H669.039Z" opacity="0.1"/>
        <path id="Path_16" data-name="Path 16" d="M684.435,597h33.591l14-9.8H669.039Z" opacity="0.1"/>
        <path id="Path_17" data-name="Path 17" d="M684.435,654.381h33.591l14-9.8H669.039Z" opacity="0.1"/>
        <path id="Path_18" data-name="Path 18" d="M701.016,390.069l-4.669,29.808s-22.984,12.21-6.823,12.569,92.3,0,92.3,0,14.724,0-8.619-12.929l-4.669-31.244Z" transform="translate(-168.5 -36.643)" fill="#3f3d56"/>
        <path id="Path_19" data-name="Path 19" d="M686.273,432.123a63.569,63.569,0,0,1,10.074-6.669l4.669-29.807,67.516.064L773.2,425.1a61.3,61.3,0,0,1,10.788,7.1c3-.684,6.274-3.226-10.788-12.676l-4.669-31.244-67.516,1.8-4.669,29.807S677.034,430.139,686.273,432.123Z" transform="translate(-168.5 -36.643)" opacity="0.1"/>
        <rect id="Rectangle_1" data-name="Rectangle 1" width="304.18" height="211.885" rx="10.695" transform="translate(413.824 145.672)" fill="#3f3d56"/>
        <rect id="Rectangle_2" data-name="Rectangle 2" width="283.71" height="158.734" transform="translate(431 155.303)" fill="#f2f2f2"/>
        <circle id="Ellipse_2" data-name="Ellipse 2" cx="1.796" cy="1.796" r="1.796" transform="translate(564.118 150.16)" fill="#f2f2f2"/>
        <path id="Path_20" data-name="Path 20" d="M886.505,364.931v18.574a10.694,10.694,0,0,1-10.7,10.695H593.019a10.694,10.694,0,0,1-10.695-10.7V364.931Z" transform="translate(-168.5 -36.643)" fill="#3f3d56"/>
        <circle id="Ellipse_3" data-name="Ellipse 3" cx="6.823" cy="6.823" r="6.823" transform="translate(559.091 336.189)" fill="#f2f2f2"/>
        <path id="Path_21" data-name="Path 21" d="M555.281,415.2v3.592H362.071v-2.873l.266-.719,4.762-12.928H551.331Z" fill="#3f3d56"/>
        <path id="Path_22" data-name="Path 22" d="M798.135,448.323c-.352,1.5-1.681,3.092-4.683,4.593-10.774,5.387-32.68-1.436-32.68-1.436s-16.879-2.873-16.879-10.415a13.466,13.466,0,0,1,1.48-.88c4.53-2.4,19.548-8.31,46.178.25a11.106,11.106,0,0,1,5.062,3.317,5.3,5.3,0,0,1,1.523,4.57Z" transform="translate(-168.5 -36.643)" fill="#3f3d56"/>
        <path id="Path_23" data-name="Path 23" d="M798.135,448.323c-13.187,5.053-24.941,5.43-37-2.948-6.084-4.223-11.611-5.268-15.758-5.189,4.53-2.4,19.548-8.31,46.178.25a11.106,11.106,0,0,1,5.062,3.317,5.3,5.3,0,0,1,1.523,4.57Z" transform="translate(-168.5 -36.643)" opacity="0.1"/>
        <ellipse id="Ellipse_4" data-name="Ellipse 4" cx="4.669" cy="1.437" rx="4.669" ry="1.437" transform="translate(608.432 405.859)" fill="#f2f2f2"/>
        <path id="Path_24" data-name="Path 24" d="M555.281,415.2v3.592H362.071v-2.873l.266-.719Z" opacity="0.1"/>
        <path id="Path_25" data-name="Path 25" d="M834.194,268.594c-1.524-1.524-21.087-26.169-24.39-30.234-3.557-4.065-5.081-3.3-7.368-3.049s-26.931,4.573-29.726,4.827c-2.795.508-4.573,1.524-2.795,4.065,1.524,2.287,17.784,25.152,21.341,30.488l-64.786,15.5L675.15,204.062c-2.033-3.049-2.541-4.065-7.114-3.811s-40.4,3.3-42.937,3.3c-2.541.254-5.335,1.27-2.795,7.368s43.191,93.5,44.207,96.036,4.065,6.606,10.925,5.081c7.114-1.778,31.5-8.13,44.969-11.687,7.114,12.7,21.341,38.618,24.136,42.429,3.557,5.081,6.1,4.065,11.433,2.541,4.319-1.27,66.565-23.628,69.359-24.9s4.573-2.033,2.541-4.827c-1.524-2.033-17.784-24.136-26.423-35.569,5.844-1.524,26.931-7.114,29.217-7.876,2.541-.762,3.049-2.033,1.524-3.557ZM716.562,292.73c-.762.254-37.093,8.892-38.872,9.4-2.033.508-2.033.254-2.033-.508-.508-.762-43.191-89.176-43.953-90.193-.508-1.016-.508-2.033,0-2.033s34.3-3.049,35.315-3.049c1.27,0,1.016.254,1.524,1.016,0,0,47.51,82.063,48.272,83.333,1.016,1.27.508,1.778-.254,2.033ZM818.7,311.785c.508,1.016,1.27,1.524-.762,2.033-1.778.762-61.229,20.833-62.5,21.341s-2.033.762-3.557-1.524-20.833-35.569-20.833-35.569l63.262-16.514c1.524-.508,2.033-.762,3.049.762,1.016,1.778,20.833,28.709,21.341,29.471Zm4.065-44.715c-1.524.254-24.644,6.1-24.644,6.1l-19.055-25.915c-.508-.762-1.016-1.524.254-1.778s22.866-4.065,23.882-4.319,1.778-.508,3.049,1.27c1.27,1.524,17.53,22.358,18.293,23.12S824.285,266.815,822.761,267.07Z" transform="translate(-168.5 -36.643)" fill="#fb503b"/>
        <circle id="Ellipse_5" data-name="Ellipse 5" cx="38.247" cy="38.247" r="38.247" transform="translate(356.392 117.648)" fill="#ffb9b9"/>
        <path id="Path_26" data-name="Path 26" d="M534.957,211.661v60.39h62.4s-8.052-50.325-4.026-65.422Z" transform="translate(-168.5 -36.643)" fill="#ffb9b9"/>
        <path id="Path_27" data-name="Path 27" d="M658.756,293.187s-59.383-29.188-59.383-31.2-6.039-15.1-10.065-15.1-38.247-11.071-57.37,5.032l-2.013,13.084-73.474,48.312,20.13,73.474s13.084,14.091,9.058,24.156,3.019,61.4,3.019,61.4l158.019-5.032V398.868s5.032-16.1,8.052-21.136,0-20.13,0-20.13l24.156-30.195S675.866,299.225,658.756,293.187Z" transform="translate(-168.5 -36.643)" fill="#d0cde1"/>
        <path id="Path_28" data-name="Path 28" d="M458.967,337.975l4.529-24.659S437.328,427.05,440.347,440.134s25.162,33.214,28.182,34.221,31.2-86.558,31.2-86.558Z" transform="translate(-168.5 -36.643)" opacity="0.1"/>
        <path id="Path_29" data-name="Path 29" d="M473.561,310.3l-17.11,3.019S430.282,427.05,433.3,440.134s25.162,33.214,28.182,34.221,31.2-86.558,31.2-86.558Z" transform="translate(-168.5 -36.643)" fill="#d0cde1"/>
        <path id="Path_30" data-name="Path 30" d="M664.291,344.014l8.555-16.607s12.078,113.734,4.026,124.8-39.9,15.214-39.9,15.214l-.357-82.649Z" transform="translate(-168.5 -36.643)" opacity="0.1"/>
        <path id="Path_31" data-name="Path 31" d="M665.8,314.323l13.084,13.084s12.078,113.734,4.026,124.8-39.9,15.214-39.9,15.214l-.357-82.649Z" transform="translate(-168.5 -36.643)" fill="#d0cde1"/>
        <path id="Path_32" data-name="Path 32" d="M470.542,487.439s-29.188-11.071-34.221,10.065S448.4,613.251,448.4,613.251s11.071,71.461,18.117,73.474,38.247,3.019,43.279-6.039S494.7,579.03,494.7,579.03l116.753-2.013s-7.045,80.519-11.071,87.565-4.026,31.2,0,31.2,48.312-2.013,51.331-8.052,20.13-141.915,20.13-141.915,14.091-47.305-2.013-44.286S470.542,487.439,470.542,487.439Z" transform="translate(-168.5 -36.643)" fill="#3f3d56"/>
        <path id="Path_33" data-name="Path 33" d="M642.652,683.705s10.065-7.045,15.1,0,7.045,15.1-15.1,27.175-39.253,9.058-39.253,7.045V688.738Z" transform="translate(-168.5 -36.643)" fill="#2f2e41"/>
        <path id="Path_34" data-name="Path 34" d="M468.529,680.686s-10.065-7.045-15.1,0-7.046,15.1,15.1,27.175,39.253,9.058,39.253,7.045V685.718Z" transform="translate(-168.5 -36.643)" fill="#2f2e41"/>
        <path id="Path_35" data-name="Path 35" d="M563.387,144.312a32.348,32.348,0,0,0-11.233,1.6,43.428,43.428,0,0,0-8,4.234l-16.886,10.5a7.908,7.908,0,0,0-4.766,7.37l-2.11,15.8c-.532,3.988-1.023,8.252.762,11.858,1.49,3.009,4.331,5.069,6.668,7.48a27.456,27.456,0,0,1,7.236,14.061c1.208,6.6.435,14.542,5.656,18.753,2.827,2.28,6.68,2.711,10.306,2.923a153.786,153.786,0,0,0,29.7-1.143,11.82,11.82,0,0,0,4.487-1.257c1.775-1.05,2.892-2.9,3.937-4.681,3.771-6.42,7.657-13.249,7.616-20.694-.02-3.683-.963-7.639.806-10.87A42.5,42.5,0,0,1,600.6,196.3c2.19-3.077,2.616-7.03,2.973-10.79,1.14-12.009-.052-21.147-8.9-29.606C586.41,148.011,574.654,144.385,563.387,144.312Z" transform="translate(-168.5 -36.643)" fill="#2f2e41"/>
        <path id="Path_36" data-name="Path 36" d="M300.937,569.7,267.346,740.458h16.795L316.333,572.5Z" fill="#2f2e41"/>
        <path id="Path_37" data-name="Path 37" d="M408.708,583.7,429.7,779.648h14L431.1,578.1Z" fill="#2f2e41"/>
        <path id="Path_38" data-name="Path 38" d="M466.093,578.1l29.392,130.166h14L481.489,575.3Z" fill="#2f2e41"/>
        <path id="Path_39" data-name="Path 39" d="M354.123,578.1l-4.2,103.573h11.2l8.4-103.573Z" fill="#2f2e41"/>
        <path id="Path_40" data-name="Path 40" d="M445.643,588.151s-22.394-149.76,40.589-153.959,152.559,0,152.559,0,51.786-4.2,36.39,153.959c0,0,14,46.188-111.97,41.989S445.643,588.151,445.643,588.151Z" transform="translate(-168.5 -36.643)" fill="#e83350"/>
        <path id="Path_41" data-name="Path 41" d="M1019.5,649.308c0,26.115-15.525,35.234-34.676,35.234s-34.676-9.118-34.676-35.234,34.676-59.338,34.676-59.338S1019.5,623.193,1019.5,649.308Z" transform="translate(-168.5 -36.643)" fill="#e83350"/>
        <path id="Path_42" data-name="Path 42" d="M815.416,622.048,830.2,595.009l-14.724,23.61.16-9.827,10.186-19.563-10.144,16.962.287-17.675,10.908-15.574-10.863,12.795.18-32.41-1.079,41.067L804.06,577.487l10.912,20.372-1.033,19.74-.031-.524-12.785-17.863,12.746,19.714-.129,2.469-.023.037.011.2-2.622,26.342h3.5l.42-2.128,12.715-19.667L815.06,643.9Z" fill="#3f3d56"/>
        <path id="Path_43" data-name="Path 43" d="M838.47,704.549H797.129l-10.684-60.386h60.386Z" fill="#2f2e41"/>
        <rect id="Rectangle_3" data-name="Rectangle 3" width="86" height="100.828" transform="translate(145 296.3)" fill="#3f3d56"/>
        <rect id="Rectangle_4" data-name="Rectangle 4" width="59.31" height="69.536" transform="translate(158.345 311.946)" fill="#f2f2f2"/>
        <path id="Path_44" data-name="Path 44" d="M362.444,363.357l-6.023,10.431L350.4,363.357H330.343l26.079,45.171L382.5,363.357Z" transform="translate(-168.5 -36.643)" fill="#4dba87"/>
        <path id="Path_45" data-name="Path 45" d="M362.444,363.357l-6.023,10.431L350.4,363.357h-9.624l15.647,27.1,15.647-27.1Z" transform="translate(-168.5 -36.643)" fill="#435466"/>
      </g>
    </g>
  </g>
</svg>
